<svg width="85" height="85" viewBox="0 0 85 85" fill="none" xmlns="http://www.w3.org/2000/svg">
<path d="M3.54169 14.1665V35.4165H24.7917" stroke="white" stroke-width="7.08333" stroke-linecap="round" stroke-linejoin="round"/>
<path d="M81.4583 70.8335V49.5835H60.2083" stroke="white" stroke-width="7.08333" stroke-linecap="round" stroke-linejoin="round"/>
<path d="M72.5688 31.8754C70.7725 26.7994 67.7198 22.2612 63.6952 18.6842C59.6707 15.1072 54.8057 12.6079 49.554 11.4197C44.3023 10.2314 38.8353 10.3929 33.6629 11.889C28.4905 13.3851 23.7814 16.1671 19.975 19.9754L3.54169 35.4171M81.4584 49.5837L65.025 65.0254C61.2186 68.8337 56.5095 71.6157 51.3372 73.1118C46.1648 74.608 40.6977 74.7694 35.446 73.5812C30.1944 72.3929 25.3293 69.8937 21.3048 66.3166C17.2803 62.7396 14.2275 58.2014 12.4313 53.1254" stroke="white" stroke-width="7.08333" stroke-linecap="round" stroke-linejoin="round"/>
</svg>
